<?xml version="1.0" encoding="UTF-8"?>
<svg version="1.1" xmlns="http://www.w3.org/2000/svg" width="1381" height="1365">
<path d="M0 0 C2.60183789 2.16194486 5.21869076 4.30465032 7.83886719 6.44433594 C8.69222656 7.14171875 9.54558594 7.83910156 10.42480469 8.55761719 C11.26269531 9.24210937 12.10058594 9.92660156 12.96386719 10.63183594 C14.79731755 12.13169289 16.6306489 13.63169534 18.46386719 15.13183594 C19.37136719 15.87433594 20.27886719 16.61683594 21.21386719 17.38183594 C260.46386719 213.13183594 260.46386719 213.13183594 263.23730469 215.40136719 C264.99204503 216.83683529 266.74721873 218.27177389 268.50292969 219.70605469 C274.91225569 224.94388757 281.30329914 230.20360813 287.69140625 235.46728516 C293.43841781 240.20170357 299.19742498 244.92109623 304.96386719 249.63183594 C306.79731755 251.13169289 308.6306489 252.63169534 310.46386719 254.13183594 C311.37136719 254.87433594 312.27886719 255.61683594 313.21386719 256.38183594 C348.96386719 285.63183594 384.71386719 314.88183594 420.46386719 344.13183594 C421.3778125 344.87949219 422.29175781 345.62714844 423.23339844 346.39746094 C425.00209514 347.84480645 426.77035262 349.29268894 428.53808594 350.74121094 C434.0029314 355.21764638 439.47987364 359.67889994 444.96386719 364.13183594 C451.30908101 369.28407231 457.64171379 374.4513157 463.96386719 379.63183594 C465.79708367 381.13197875 467.63041864 382.63197676 469.46386719 384.13183594 C513.46386719 420.13183594 513.46386719 420.13183594 516.20996094 422.38183594 C518.05215229 423.88694547 519.89854869 425.38692226 521.74902344 426.88183594 C528.00041682 431.94625589 534.06551211 437.15974853 539.96386719 442.63183594 C540.61742187 443.21964844 541.27097656 443.80746094 541.94433594 444.41308594 C560.16178371 461.54124302 571.25411197 484.5566696 578.21386719 508.19433594 C578.46031982 509.02022217 578.70677246 509.8461084 578.96069336 510.69702148 C586.89771367 538.8044439 583.97635741 568.25441219 575.91699219 595.82714844 C575.72050898 596.50184299 575.52402576 597.17653755 575.32158852 597.8716774 C571.15914433 612.15203453 566.74567119 626.35053932 562.27215958 640.53633499 C560.29505207 646.81201149 558.32972684 653.09139934 556.36230469 659.37011719 C556.02746158 660.43821153 556.02746158 660.43821153 555.68585396 661.52788353 C550.65880001 677.56579598 545.71037579 693.62759695 540.77636719 709.69433594 C540.35550334 711.06446767 539.93462523 712.43459503 539.51373291 713.80471802 C538.67650492 716.53017098 537.83929074 719.25562819 537.00210571 721.98109436 C536.79684895 722.64930773 536.59159218 723.3175211 536.38011551 724.00598335 C535.96797305 725.34778483 535.55586101 726.68959566 535.14377975 728.03141594 C530.95400035 741.67401334 526.74374069 755.31024487 522.52636719 768.94433594 C521.1409418 773.42349991 519.75552277 777.90266584 518.37011719 782.38183594 C518.01971375 783.51466003 517.6693103 784.64748413 517.30828857 785.81463623 C514.49242595 794.91940157 511.68067936 804.02543343 508.87011719 813.13183594 C491.20956215 870.35166656 473.44504 927.53872932 455.61781311 984.70683289 C450.81145008 1000.11985485 446.00708433 1015.53349896 441.20310402 1030.94726372 C439.4602033 1036.53941592 437.71719186 1042.13153361 435.97412109 1047.72363281 C431.9487882 1060.63772391 427.92345925 1073.55181617 423.89941406 1086.46630859 C423.64570069 1087.28054826 423.39198732 1088.09478792 423.13058567 1088.93370152 C421.8495793 1093.04485991 420.56864758 1097.15604155 419.28782654 1101.26725769 C416.76716505 1109.35773865 414.24508807 1117.44777381 411.7199707 1125.53686523 C410.73474969 1128.6934867 409.74965763 1131.85014837 408.76464844 1135.00683594 C408.52299517 1135.78119806 408.2813419 1136.55556019 408.0323658 1137.35338783 C404.89075851 1147.42272616 401.76681973 1157.49734215 398.66079712 1167.57771301 C397.06163035 1172.76728669 395.45644953 1177.95499398 393.84971809 1183.14223003 C392.78294801 1186.58779763 391.71951704 1190.03431197 390.66467285 1193.48355103 C377.18632022 1237.53911802 355.36558783 1273.91096735 313.80371094 1296.72558594 C302.97949159 1302.23921735 291.59310998 1306.47030389 279.83886719 1309.50683594 C279.1136084 1309.69785889 278.38834961 1309.88888184 277.64111328 1310.08569336 C260.3474597 1314.22782959 242.57133657 1313.9244076 224.9117712 1313.88877105 C221.2568513 1313.88364319 217.60194786 1313.89023879 213.94703037 1313.89525771 C207.55713358 1313.90244455 201.16727066 1313.90228459 194.77737236 1313.89716339 C185.27487783 1313.88956847 175.77241162 1313.89348144 166.26991725 1313.89958001 C149.29324525 1313.91009052 132.31658833 1313.90920698 115.33991491 1313.90342218 C100.48115862 1313.89838415 85.62240786 1313.89708088 70.76365089 1313.89946747 C69.77669788 1313.89962024 68.78974486 1313.89977301 67.77288418 1313.89993041 C63.76613656 1313.90055312 59.75938895 1313.90118993 55.75264134 1313.90184994 C18.18958714 1313.90796366 -19.37345747 1313.90242806 -56.93651019 1313.89165614 C-90.2775842 1313.88216763 -123.61864292 1313.88301283 -156.9597168 1313.89257812 C-194.45107275 1313.90329825 -231.94242024 1313.9075278 -269.43377751 1313.9013536 C-273.43400808 1313.9007122 -277.43423865 1313.90008652 -281.43446922 1313.89946747 C-282.41936893 1313.89930931 -283.40426863 1313.89915116 -284.41901378 1313.89898821 C-299.26297535 1313.89671753 -314.10693078 1313.89936591 -328.95089149 1313.90442657 C-345.8390149 1313.91015557 -362.72712091 1313.90869323 -379.61524216 1313.89786509 C-389.05573948 1313.89201106 -398.49619908 1313.89158222 -407.93669538 1313.89915744 C-414.25563449 1313.90366668 -420.57454358 1313.90080721 -426.89347827 1313.8921479 C-430.48504593 1313.88742504 -434.07653909 1313.88569017 -437.66810421 1313.89295986 C-477.13992398 1313.96698017 -477.13992398 1313.96698017 -494.59863281 1309.50683594 C-495.4488501 1309.29583252 -496.29906738 1309.0848291 -497.17504883 1308.86743164 C-535.12054944 1298.95021513 -567.23220333 1274.02781315 -587.29101562 1240.53662109 C-588.50912606 1238.43876423 -589.68784414 1236.32439683 -590.84863281 1234.19433594 C-591.18531982 1233.5881543 -591.52200684 1232.98197266 -591.86889648 1232.35742188 C-599.46841579 1217.83793959 -603.49756043 1201.08358811 -608.34863281 1185.50683594 C-609.05501663 1183.24628815 -609.76156371 1180.98579138 -610.46826172 1178.7253418 C-617.12225387 1157.42333302 -623.70700505 1136.09987906 -630.28672791 1114.77484131 C-635.28999212 1098.56187667 -640.31062224 1082.35428214 -645.32891846 1066.14596558 C-648.15876973 1057.00595145 -650.98815165 1047.86579203 -653.81738281 1038.72558594 C-654.09091206 1037.84191786 -654.3644413 1036.95824978 -654.64625931 1036.04780388 C-659.60651429 1020.02278429 -664.56182524 1003.99624124 -669.51339722 987.96853638 C-673.741474 974.28299165 -677.9745045 960.59899259 -682.21274185 946.91659164 C-693.43077808 910.70094383 -704.63181234 874.48029792 -715.77121735 838.24037933 C-723.97574533 811.54917178 -732.2135506 784.86840308 -740.47363281 758.19433594 C-741.03252295 756.3894149 -741.5914117 754.58449343 -742.15029907 752.77957153 C-745.99191169 740.37342492 -749.83455413 727.96759732 -753.67733765 715.56181335 C-758.01421121 701.56077337 -762.34608781 687.55823574 -766.66299438 673.55102539 C-768.99345854 665.99498541 -771.33729715 658.44319999 -773.68679714 650.89306164 C-775.79668355 644.11117211 -777.89882816 637.32690658 -779.9966135 630.54126453 C-781.28578848 626.37237738 -782.57832889 622.20460849 -783.87973022 618.03952026 C-798.2473218 572.03522594 -805.71495533 526.82269396 -783.09912109 481.65917969 C-771.45919261 459.45937121 -754.97063942 440.80294162 -735.03613281 425.63183594 C-733.21792067 424.15969638 -731.40563861 422.68020953 -729.59863281 421.19433594 C-728.68210937 420.4428125 -727.76558594 419.69128906 -726.82128906 418.91699219 C-725.9021875 418.16289062 -724.98308594 417.40878906 -724.03613281 416.63183594 C-722.2030312 415.13155277 -720.36969854 413.63155186 -718.53613281 412.13183594 C-717.62863281 411.38933594 -716.72113281 410.64683594 -715.78613281 409.88183594 C-713.03613281 407.63183594 -710.28613281 405.38183594 -707.53613281 403.13183594 C-706.62089844 402.38289063 -705.70566406 401.63394531 -704.76269531 400.86230469 C-703.00795497 399.42683658 -701.25278127 397.99189798 -699.49707031 396.55761719 C-693.83272491 391.92859776 -688.18172728 387.28369688 -682.53613281 382.63183594 C-676.0470828 377.2849839 -669.54768448 371.95127276 -663.03613281 366.63183594 C-661.20268245 365.13197898 -659.3693511 363.63197654 -657.53613281 362.13183594 C-613.53613281 326.13183594 -569.53613281 290.13183594 -525.53613281 254.13183594 C-524.62089844 253.38289063 -523.70566406 252.63394531 -522.76269531 251.86230469 C-521.00795497 250.42683658 -519.25278127 248.99189798 -517.49707031 247.55761719 C-511.83272468 242.92859757 -506.18176379 238.28365281 -500.53613281 233.63183594 C-490.69945774 225.52776314 -480.83254006 217.46205046 -470.93823242 209.4284668 C-467.13148245 206.33692166 -463.32957319 203.2397148 -459.53613281 200.13183594 C-454.3491922 195.88229423 -449.14413396 191.65527821 -443.93847656 187.42871094 C-440.13167934 184.33704261 -436.32966169 181.23978731 -432.53613281 178.13183594 C-427.3491922 173.88229423 -422.14413396 169.65527821 -416.93847656 165.42871094 C-413.13167934 162.33704261 -409.32966169 159.23978731 -405.53613281 156.13183594 C-400.3491922 151.88229423 -395.14413396 147.65527821 -389.93847656 143.42871094 C-386.13167934 140.33704261 -382.32966169 137.23978731 -378.53613281 134.13183594 C-373.3491922 129.88229423 -368.14413396 125.65527821 -362.93847656 121.42871094 C-359.13167934 118.33704261 -355.32966169 115.23978731 -351.53613281 112.13183594 C-346.3491922 107.88229423 -341.14413396 103.65527821 -335.93847656 99.42871094 C-332.13167934 96.33704261 -328.32966169 93.23978731 -324.53613281 90.13183594 C-319.3491922 85.88229423 -314.14413396 81.65527821 -308.93847656 77.42871094 C-305.13167934 74.33704261 -301.32966169 71.23978731 -297.53613281 68.13183594 C-292.3491922 63.88229423 -287.14413396 59.65527821 -281.93847656 55.42871094 C-278.13167934 52.33704261 -274.32966169 49.23978731 -270.53613281 46.13183594 C-265.3491922 41.88229423 -260.14413396 37.65527821 -254.93847656 33.42871094 C-251.13167934 30.33704261 -247.32966169 27.23978731 -243.53613281 24.13183594 C-238.46448931 19.9774852 -233.37902602 15.84032814 -228.2878418 11.70996094 C-224.86943968 8.9363965 -221.45517283 6.15815357 -218.05175781 3.36621094 C-214.06457285 0.09881805 -210.05696729 -3.14229066 -206.03613281 -6.36816406 C-204.99755127 -7.20444336 -204.99755127 -7.20444336 -203.93798828 -8.05761719 C-139.65050713 -59.53488318 -61.19347117 -50.94293113 0 0 Z M-105.03613281 267.63183594 C-107.11747536 269.14442166 -108.9512756 270.66084561 -110.84863281 272.38183594 C-112.02113533 273.41143506 -113.19568068 274.43871163 -114.37207031 275.46386719 C-115.28037598 276.25784912 -115.28037598 276.25784912 -116.20703125 277.06787109 C-119.05282259 279.50115184 -122.0092624 281.78329969 -124.97363281 284.06933594 C-130.47940779 288.34017073 -135.79297996 292.7952691 -141.06054688 297.35546875 C-145.16919637 300.9073278 -149.35387473 304.34063837 -153.61425781 307.70996094 C-158.13275022 311.2956033 -162.57681989 314.97307288 -167.03613281 318.63183594 C-168.86923443 320.1321191 -170.70256709 321.63212002 -172.53613281 323.13183594 C-173.44363281 323.87433594 -174.35113281 324.61683594 -175.28613281 325.38183594 C-266.03613281 399.63183594 -356.78613281 473.88183594 -469.53613281 566.13183594 C-470.45136719 566.88078125 -471.36660156 567.62972656 -472.30957031 568.40136719 C-474.06431066 569.83683529 -475.81948436 571.27177389 -477.57519531 572.70605469 C-479.3355451 574.1446487 -481.09461087 575.58481504 -482.85253906 577.02636719 C-485.37483177 579.09413297 -487.90628079 581.15043142 -490.43847656 583.20605469 C-491.99197112 584.47284794 -493.54535649 585.7397751 -495.09863281 587.00683594 C-495.84967285 587.61422607 -496.60071289 588.22161621 -497.37451172 588.84741211 C-498.07882324 589.42338135 -498.78313477 589.99935059 -499.50878906 590.59277344 C-500.14051025 591.10630371 -500.77223145 591.61983398 -501.4230957 592.14892578 C-503.27595331 593.73468459 -503.27595331 593.73468459 -505.03613281 596.63183594 C-504.77123323 599.14241139 -504.77123323 599.14241139 -503.92822266 601.93603516 C-503.63145126 603.03719666 -503.33467987 604.13835815 -503.02891541 605.27288818 C-502.68840652 606.48188782 -502.34789764 607.69088745 -501.99707031 608.93652344 C-501.47549095 610.84525238 -501.47549095 610.84525238 -500.94337463 612.7925415 C-499.98407056 616.29911128 -499.00755619 619.80067754 -498.02726364 623.30142975 C-497.2007275 626.25997012 -496.38334564 629.22101002 -495.5656271 632.1819973 C-473.46138887 712.18234538 -449.53405784 791.68715949 -391.953125 962.29980469 C-390.03262067 967.63494571 -388.13107055 972.97673255 -386.23144531 978.31933594 C-381.02908431 992.93291725 -375.77853692 1007.52292281 -370.22363281 1022.00683594 C-369.80863525 1023.0894873 -369.3936377 1024.17213867 -368.96606445 1025.28759766 C-367.52983481 1029.77443905 -367.52983481 1029.77443905 -365.03613281 1033.63183594 C-362.67993509 1033.73190115 -360.35301716 1033.76624257 -357.99623108 1033.75881958 C-356.87191603 1033.76116169 -356.87191603 1033.76116169 -355.72488755 1033.76355112 C-353.17895838 1033.7675799 -350.63308795 1033.76436489 -348.0871582 1033.76123047 C-346.25409028 1033.76256583 -344.42102263 1033.76432431 -342.58795547 1033.76647186 C-337.51464717 1033.77103863 -332.44135856 1033.76913354 -327.36804986 1033.76606035 C-323.00525005 1033.76415577 -318.64245438 1033.76576797 -314.27965468 1033.76739728 C-302.34130997 1033.77182087 -290.40297703 1033.76876069 -278.46463364 1033.76240098 C-269.64565232 1033.75774728 -260.82667285 1033.75535305 -252.00769043 1033.75415039 C-174.64917064 1033.74159928 -97.29172747 1033.54298785 120.96386719 1032.63183594 C121.23077834 1031.85393802 121.4976895 1031.0760401 121.77268887 1030.27456951 C124.3364819 1022.80269817 126.9005493 1015.33092105 129.46489614 1007.85923976 C130.78201173 1004.02155987 132.09903513 1000.1838484 133.41581726 996.34605408 C140.09785669 976.87135422 146.79618868 957.40246247 153.52636719 937.94433594 C160.36061792 918.18093829 167.17027577 898.40923953 173.96386719 878.63183594 C180.75745859 858.85443239 187.56630676 839.08245807 194.40136719 819.31933594 C201.69991974 798.2157213 208.95831187 777.09852578 216.20316696 755.97643661 C222.93386772 736.35362024 229.68264885 716.73726861 236.46386719 697.13183594 C243.48327254 676.83462826 250.47791579 656.52901147 257.45455933 636.21707153 C258.2009494 634.04443776 258.9477062 631.87193039 259.69458008 629.69946289 C265.19385725 613.70208838 270.6569021 597.69428023 275.96386719 581.63183594 C268.90097897 575.5353434 261.84055657 569.47210525 254.51855469 563.68652344 C251.47661947 561.23995169 248.49968378 558.72349845 245.52636719 556.19433594 C239.7314757 551.26609684 233.8669337 546.43023503 227.96386719 541.63183594 C222.14105608 536.89867369 216.35916171 532.1276702 210.65136719 527.25683594 C206.2152523 523.47402063 201.69786694 519.82651336 197.08886719 516.25683594 C191.34521354 511.80257392 185.83652699 507.12254499 180.36767578 502.33642578 C174.99975996 497.64177874 169.51124104 493.11304785 163.96386719 488.63183594 C158.13950772 483.90061139 152.35912563 479.12763941 146.65136719 474.25683594 C142.2152523 470.47402063 137.69786694 466.82651336 133.08886719 463.25683594 C127.34521354 458.80257392 121.83652699 454.12254499 116.36767578 449.33642578 C110.99975996 444.64177874 105.51124104 440.11304785 99.96386719 435.63183594 C94.13950772 430.90061139 88.35912563 426.12763941 82.65136719 421.25683594 C78.2152591 417.47402643 73.69796458 413.82637971 69.08886719 410.25683594 C63.40548741 405.85164281 57.97154031 401.21269243 52.56982422 396.46826172 C48.46716818 392.88361245 44.27592718 389.46078518 39.96386719 386.13183594 C34.31698523 381.77239208 28.92831046 377.17483147 23.56933594 372.46777344 C19.46678636 368.88335124 15.27572042 365.46067915 10.96386719 362.13183594 C5.22778211 357.70288199 -0.2570438 353.0357641 -5.70751953 348.26123047 C-9.89246188 344.60145736 -14.1591899 341.08262268 -18.52832031 337.64355469 C-21.49853597 335.26090505 -24.39214131 332.79325967 -27.28613281 330.31933594 C-31.74242438 326.51428792 -36.27782702 322.84380637 -40.91113281 319.25683594 C-46.59459542 314.85175663 -52.02846693 310.21268607 -57.43017578 305.46826172 C-61.53283455 301.88361006 -65.72409653 298.46082047 -70.03613281 295.13183594 C-75.09677916 291.22440267 -79.97460296 287.15472755 -84.78613281 282.94433594 C-94.08453497 273.91123825 -94.08453497 273.91123825 -105.03613281 267.63183594 Z " fill="#D8B8FE" transform="translate(798.0361328125,43.3681640625)"/>
<path d="M0 0 C5.83916295 4.20419732 11.27874307 8.76599941 16.71655273 13.46704102 C20.92969983 17.10236577 25.21294196 20.62592142 29.578125 24.078125 C34.09661741 27.66376736 38.54068708 31.34123694 43 35 C44.83310162 36.50028317 46.66643427 38.00028408 48.5 39.5 C85.16666667 69.5 121.83333333 99.5 158.5 129.5 C159.87091797 130.62148438 159.87091797 130.62148438 161.26953125 131.765625 C163.03822795 133.21297051 164.80648543 134.66085301 166.57421875 136.109375 C172.03906421 140.58581045 177.51600645 145.047064 183 149.5 C189.34521382 154.65223637 195.6778466 159.81947976 202 165 C203.83321648 166.50014281 205.66655146 168.00014082 207.5 169.5 C251.5 205.5 251.5 205.5 254.24609375 207.75 C256.08828511 209.25510953 257.9346815 210.75508632 259.78515625 212.25 C266.03654963 217.31441996 272.10164492 222.5279126 278 228 C278.65355469 228.5878125 279.30710937 229.175625 279.98046875 229.78125 C298.19791653 246.90940708 309.29024478 269.92483366 316.25 293.5625 C316.49645264 294.38838623 316.74290527 295.21427246 316.99682617 296.06518555 C324.93384648 324.17260796 322.01249023 353.62257626 313.953125 381.1953125 C313.75664179 381.87000706 313.56015858 382.54470161 313.35772133 383.23984146 C309.19527714 397.5201986 304.78180401 411.71870338 300.30829239 425.90449905 C298.33118488 432.18017556 296.36585965 438.4595634 294.3984375 444.73828125 C294.17520876 445.45034414 293.95198002 446.16240704 293.72198677 446.89604759 C288.69493282 462.93396004 283.7465086 478.99576102 278.8125 495.0625 C278.39163615 496.43263174 277.97075804 497.80275909 277.54986572 499.17288208 C276.71263773 501.89833505 275.87542355 504.62379226 275.03823853 507.34925842 C274.83298176 508.01747179 274.62772499 508.68568516 274.41624832 509.37414742 C274.00410586 510.7159489 273.59199382 512.05775972 273.17991257 513.39958 C268.99013317 527.0421774 264.77987351 540.67840893 260.5625 554.3125 C259.17707461 558.79166397 257.79165558 563.27082991 256.40625 567.75 C255.88064484 569.44923615 255.88064484 569.44923615 255.34442139 571.18280029 C252.52855876 580.28756564 249.71681217 589.39359749 246.90625 598.5 C229.24569497 655.71983062 211.48117281 712.90689339 193.65394592 770.07499695 C188.84758289 785.48801891 184.04321714 800.90166303 179.23923683 816.31542778 C177.49633611 821.90757999 175.75332467 827.49969767 174.01025391 833.09179688 C169.98492101 846.00588798 165.95959206 858.91998023 161.93554688 871.83447266 C161.68183351 872.64871232 161.42812014 873.46295198 161.16671848 874.30186558 C159.88571212 878.41302398 158.60478039 882.52420561 157.32395935 886.63542175 C154.80329786 894.72590271 152.28122088 902.81593787 149.75610352 910.9050293 C148.77088251 914.06165076 147.78579045 917.21831244 146.80078125 920.375 C146.55912798 921.14936213 146.31747471 921.92372425 146.06849861 922.7215519 C142.92689133 932.79089022 139.80295254 942.86550621 136.69692993 952.94587708 C135.09776316 958.13545075 133.49258234 963.32315805 131.88585091 968.5103941 C130.81908083 971.95596169 129.75564985 975.40247603 128.70080566 978.85171509 C115.22245303 1022.90728208 93.40172064 1059.27913142 51.83984375 1082.09375 C41.0156244 1087.60738142 29.62924279 1091.83846795 17.875 1094.875 C17.14974121 1095.06602295 16.42448242 1095.2570459 15.67724609 1095.45385742 C-2.36837057 1099.77610213 -20.99479764 1099.322306 -39.42007625 1099.34940362 C-43.37751058 1099.35731598 -47.33489536 1099.37646293 -51.29229736 1099.39382935 C-60.81709 1099.43305416 -70.34188593 1099.45344776 -79.86673895 1099.47128493 C-83.46854109 1099.47832608 -87.07033986 1099.48661594 -90.67213919 1099.49496425 C-106.6005416 1099.53186749 -122.52894426 1099.56335374 -138.45738316 1099.57876015 C-142.3412991 1099.5825786 -146.22521501 1099.58641948 -150.10913086 1099.59033203 C-151.07420785 1099.59129951 -152.03928484 1099.59226699 -153.03360658 1099.59326379 C-168.63667721 1099.60983385 -184.23943974 1099.66047216 -199.84237612 1099.72549339 C-215.93335783 1099.79199139 -232.02418383 1099.82768925 -248.11530346 1099.83404863 C-257.12093887 1099.8383452 -266.12612442 1099.85534118 -275.13162422 1099.90697098 C-282.80641661 1099.95087621 -290.48064966 1099.96624983 -298.15555341 1099.94703741 C-302.05479251 1099.93808762 -305.95288397 1099.9408917 -309.85195732 1099.9805603 C-331.63865602 1100.18989186 -351.06924988 1097.05588446 -372 1091 C-373.00337501 1090.71120854 -374.00675001 1090.42241707 -375.04053032 1090.12487435 C-380.19876743 1088.62387418 -385.2967573 1087.00191598 -390.375 1085.25 C-391.10840607 1085.00154327 -391.84181213 1084.75308655 -392.59744263 1084.49710083 C-407.14351546 1079.55751514 -421.17918754 1073.72394578 -435 1067 C-435.93295898 1066.54802246 -436.86591797 1066.09604492 -437.82714844 1065.63037109 C-461.15548477 1054.19171853 -483.1583431 1039.76798391 -503 1023 C-504.0765123 1022.11030111 -505.15335002 1021.22099587 -506.23046875 1020.33203125 C-519.35984172 1009.39808008 -531.48980658 997.48901829 -542 984 C-542.9254593 982.87259166 -543.85404542 981.74774534 -544.78515625 980.625 C-561.61576239 960.21236181 -574.63972856 937.30468559 -587 914 C-587.66854004 912.74316406 -587.66854004 912.74316406 -588.35058594 911.4609375 C-601.10546176 887.27561992 -611.44295251 861.77643719 -621.5 836.375 C-621.78357361 835.66209808 -622.06714722 834.94919617 -622.35931396 834.21469116 C-623.15208183 832.21583971 -623.93704144 830.21413601 -624.71875 828.2109375 C-625.16154297 827.07962402 -625.60433594 825.94831055 -626.06054688 824.78271484 C-627 822 -627 822 -627 819 C-594.37506281 818.82059848 -561.75005922 818.6555962 -529.125 818.5 C-527.88078341 818.49405146 -526.63656681 818.48810292 -525.35464668 818.48197412 C-446.3985511 818.10536184 -367.44386936 817.92231161 -257.92739618 817.93684149 C-255.74251294 817.93750226 -253.55762971 817.93814489 -251.37274647 817.93878555 C-214.58182488 817.94969462 -177.79091101 817.96970631 -141 818 C-140.87128824 817.39930758 -140.74257648 816.79861515 -140.60996437 816.17971992 C-140.34980065 814.9839121 -140.34980065 814.9839121 -140.0843811 813.76394653 C-139.91441935 812.97762911 -139.74445759 812.19131168 -139.56934547 811.38116646 C-138.66901455 807.6157237 -137.39098632 804.00829685 -136.0859375 800.3671875 C-135.79957428 799.55400055 -135.51321106 798.7408136 -135.21817017 797.90298462 C-134.59909623 796.14607045 -133.97780035 794.38993792 -133.35449219 792.63452148 C-131.64937045 787.83068524 -129.96205062 783.02059648 -128.2734375 778.2109375 C-127.9210199 777.20822815 -127.56860229 776.2055188 -127.20550537 775.17242432 C-123.39350939 764.3076615 -119.69464484 753.40509932 -116 742.5 C-110.6049303 726.58897782 -105.12810872 710.70924132 -99.57275391 694.85351562 C-94.29058714 679.77113731 -89.12171329 664.65219444 -83.98873901 649.51846313 C-79.24938193 635.55002008 -74.44121399 621.60785606 -69.5625 607.6875 C-64.11886547 592.15484245 -58.78122767 576.58860594 -53.5 561 C-47.92059657 544.5312683 -42.26672865 528.09166034 -36.515625 511.68212891 C-31.59872922 497.64762076 -26.77662707 483.58283171 -22 469.5 C-16.21157383 452.43519101 -10.34049112 435.40164081 -4.37207031 418.39892578 C-1.45678531 410.08729693 1.43037703 401.76922936 4.21875 393.4140625 C8.83826382 379.6007325 13.59534261 366.09083012 19.64770508 352.82299805 C31.75175856 326.09527179 41.30043184 298.21772457 50.25848389 270.30523682 C51.01859278 267.94219849 51.78424115 265.5810156 52.55126953 263.22021484 C69.91679944 209.72115531 85.4033044 156.16738321 66 101 C65.60554688 99.79214844 65.21109375 98.58429688 64.8046875 97.33984375 C58.37000064 78.71007669 48.55751872 60.93272682 37 45 C36.24074219 43.94941406 35.48148438 42.89882813 34.69921875 41.81640625 C25.0015444 28.66843671 14.45989407 16.21423896 2.75 4.8125 C0 2 0 2 0 0 Z " fill="#EADEFE" transform="translate(1060,258)"/>
<path d="M0 0 C2.60183789 2.16194486 5.21869076 4.30465032 7.83886719 6.44433594 C8.69222656 7.14171875 9.54558594 7.83910156 10.42480469 8.55761719 C11.26269531 9.24210937 12.10058594 9.92660156 12.96386719 10.63183594 C14.79731755 12.13169289 16.6306489 13.63169534 18.46386719 15.13183594 C19.37136719 15.87433594 20.27886719 16.61683594 21.21386719 17.38183594 C238.46386719 195.13183594 238.46386719 195.13183594 241.19824219 197.37011719 C243.08227528 198.91087307 244.96775131 200.44986583 246.85449219 201.98730469 C249.56269019 204.19603995 252.26402401 206.41290232 254.96386719 208.63183594 C255.62386719 209.16550781 256.28386719 209.69917969 256.96386719 210.24902344 C260.74762173 213.37399929 263.91587038 216.76723255 267.08886719 220.50683594 C269.07980222 222.76322897 271.18155735 224.84695137 273.33886719 226.94433594 C278.30183717 231.85700554 282.63238211 237.16235807 286.96386719 242.63183594 C287.84994015 243.72741063 288.73668204 244.82244458 289.62402344 245.91699219 C313.64145954 275.74009414 330.55368392 309.75925383 336.96386719 347.63183594 C337.13893799 348.56302246 337.31400879 349.49420898 337.49438477 350.45361328 C344.14162146 395.45295143 327.78114216 440.51781876 314.02636719 482.56933594 C313.81788147 483.20786247 313.60939575 483.84638901 313.39459229 484.50426483 C305.2633553 509.39686562 296.75709328 534.23587933 286.58886719 558.38183594 C286.10804688 559.54585937 285.62722656 560.70988281 285.13183594 561.90917969 C282.3315839 568.62523132 279.32320217 575.17678681 275.96386719 581.63183594 C271.62756902 578.85116043 267.6732393 575.81717879 263.77636719 572.44433594 C262.62726623 571.46051662 261.47751682 570.47745423 260.32714844 569.49511719 C259.75947754 569.00994629 259.19180664 568.52477539 258.60693359 568.02490234 C256.25197567 566.02826194 253.85992548 564.07885256 251.46386719 562.13183594 C247.48000435 558.89170437 243.55635837 555.59076458 239.65136719 552.25683594 C235.21535796 548.47391682 230.69795839 544.82637492 226.08886719 541.25683594 C220.40548741 536.85164281 214.97154031 532.21269243 209.56982422 527.46826172 C205.46715987 523.88360519 201.27583894 520.4609094 196.96386719 517.13183594 C191.25663684 512.72350365 185.79318277 508.08472416 180.3671875 503.3359375 C174.99935841 498.64154227 169.51106276 494.11290383 163.96386719 489.63183594 C158.13950772 484.90061139 152.35912563 480.12763941 146.65136719 475.25683594 C142.2152523 471.47402063 137.69786694 467.82651336 133.08886719 464.25683594 C127.34521354 459.80257392 121.83652699 455.12254499 116.36767578 450.33642578 C110.99975996 445.64177874 105.51124104 441.11304785 99.96386719 436.63183594 C94.13950772 431.90061139 88.35912563 427.12763941 82.65136719 422.25683594 C78.2152591 418.47402643 73.69796458 414.82637971 69.08886719 411.25683594 C63.40548741 406.85164281 57.97154031 402.21269243 52.56982422 397.46826172 C48.46716818 393.88361245 44.27592718 390.46078518 39.96386719 387.13183594 C34.31698523 382.77239208 28.92831046 378.17483147 23.56933594 373.46777344 C19.46678636 369.88335124 15.27572042 366.46067915 10.96386719 363.13183594 C5.22778211 358.70288199 -0.2570438 354.0357641 -5.70751953 349.26123047 C-9.89246188 345.60145736 -14.1591899 342.08262268 -18.52832031 338.64355469 C-21.49853597 336.26090505 -24.39214131 333.79325967 -27.28613281 331.31933594 C-31.74242438 327.51428792 -36.27782702 323.84380637 -40.91113281 320.25683594 C-46.59459542 315.85175663 -52.02846693 311.21268607 -57.43017578 306.46826172 C-61.53283455 302.88361006 -65.72409653 299.46082047 -70.03613281 296.13183594 C-75.76988384 291.70468416 -81.25804129 287.0450393 -86.69873047 282.26342773 C-90.18856601 279.20352601 -93.72785318 276.27236488 -97.41113281 273.44433594 C-100.81261343 270.77694751 -103.63730265 267.95586551 -106.47363281 264.69433594 C-111.17265701 259.30644955 -116.4261427 255.0356068 -122.03613281 250.63183594 C-123.20743563 249.67468175 -124.37660974 248.7149183 -125.54394531 247.75292969 C-188.71568633 195.92355834 -272.52052007 170.27873399 -353.83056641 177.58154297 C-383.95334233 180.66560039 -413.97946838 187.0656907 -442.03613281 198.63183594 C-442.93251465 198.99986328 -443.82889648 199.36789063 -444.75244141 199.74707031 C-456.15300989 204.30733155 -456.15300989 204.30733155 -467.02050781 209.96386719 C-468.01566406 210.51429688 -469.01082031 211.06472656 -470.03613281 211.63183594 C-470.69613281 211.30183594 -471.35613281 210.97183594 -472.03613281 210.63183594 C-465.472758 204.99518349 -458.86904151 199.44024422 -452.03613281 194.13183594 C-447.44524173 190.56459806 -442.95190617 186.91371482 -438.53613281 183.13183594 C-433.55188073 178.86308476 -428.4480163 174.78301251 -423.26660156 170.75683594 C-419.27361262 167.64035676 -415.38302718 164.42649973 -411.53613281 161.13183594 C-406.55188073 156.86308476 -401.4480163 152.78301251 -396.26660156 148.75683594 C-392.27361262 145.64035676 -388.38302718 142.42649973 -384.53613281 139.13183594 C-379.55188073 134.86308476 -374.4480163 130.78301251 -369.26660156 126.75683594 C-365.27361262 123.64035676 -361.38302718 120.42649973 -357.53613281 117.13183594 C-352.55188073 112.86308476 -347.4480163 108.78301251 -342.26660156 104.75683594 C-338.27361262 101.64035676 -334.38302718 98.42649973 -330.53613281 95.13183594 C-325.55188073 90.86308476 -320.4480163 86.78301251 -315.26660156 82.75683594 C-311.27361262 79.64035676 -307.38302718 76.42649973 -303.53613281 73.13183594 C-298.55188073 68.86308476 -293.4480163 64.78301251 -288.26660156 60.75683594 C-284.27361262 57.64035676 -280.38302718 54.42649973 -276.53613281 51.13183594 C-271.55188073 46.86308476 -266.4480163 42.78301251 -261.26660156 38.75683594 C-257.27361262 35.64035676 -253.38302718 32.42649973 -249.53613281 29.13183594 C-245.12035588 25.34995399 -240.62695376 21.69916491 -236.03613281 18.13183594 C-231.3641914 14.50091087 -226.78743288 10.7849313 -222.28613281 6.94433594 C-216.95127405 2.39625011 -211.55394654 -2.04359655 -206.03613281 -6.36816406 C-205.43317383 -6.85043457 -204.83021484 -7.33270508 -204.20898438 -7.82958984 C-139.73732335 -59.34109927 -61.45194354 -51.15810671 0 0 Z " fill="#C382FE" transform="translate(798.0361328125,43.3681640625)"/>
<path d="M0 0 C5.83916295 4.20419732 11.27874307 8.76599941 16.71655273 13.46704102 C20.92969983 17.10236577 25.21294196 20.62592142 29.578125 24.078125 C34.09661741 27.66376736 38.54068708 31.34123694 43 35 C44.83310162 36.50028317 46.66643427 38.00028408 48.5 39.5 C103.5 84.5 103.5 84.5 158.5 129.5 C159.87091797 130.62148438 159.87091797 130.62148438 161.26953125 131.765625 C163.03822795 133.21297051 164.80648543 134.66085301 166.57421875 136.109375 C172.03906421 140.58581045 177.51600645 145.047064 183 149.5 C189.34521382 154.65223637 195.6778466 159.81947976 202 165 C203.83321648 166.50014281 205.66655146 168.00014082 207.5 169.5 C251.5 205.5 251.5 205.5 254.24609375 207.75 C256.08828511 209.25510953 257.9346815 210.75508632 259.78515625 212.25 C266.03654963 217.31441996 272.10164492 222.5279126 278 228 C278.65355469 228.5878125 279.30710937 229.175625 279.98046875 229.78125 C298.19791653 246.90940708 309.29024478 269.92483366 316.25 293.5625 C316.49645264 294.38838623 316.74290527 295.21427246 316.99682617 296.06518555 C324.93384648 324.17260796 322.01249023 353.62257626 313.953125 381.1953125 C313.75664179 381.87000706 313.56015858 382.54470161 313.35772133 383.23984146 C309.19527714 397.5201986 304.78180401 411.71870338 300.30829239 425.90449905 C298.33118488 432.18017556 296.36585965 438.4595634 294.3984375 444.73828125 C294.06359439 445.80637559 294.06359439 445.80637559 293.72198677 446.89604759 C288.69493282 462.93396004 283.7465086 478.99576102 278.8125 495.0625 C278.39163615 496.43263174 277.97075804 497.80275909 277.54986572 499.17288208 C276.71263773 501.89833505 275.87542355 504.62379226 275.03823853 507.34925842 C274.83298176 508.01747179 274.62772499 508.68568516 274.41624832 509.37414742 C274.00410586 510.7159489 273.59199382 512.05775972 273.17991257 513.39958 C268.99013316 527.04217742 264.77986494 540.67840626 260.5625 554.3125 C259.19400215 558.73697661 257.82551251 563.16145576 256.45703125 567.5859375 C256.10931168 568.71009064 255.7615921 569.83424377 255.40333557 570.99246216 C252.41561465 580.65289854 249.43201707 590.31460528 246.44921875 599.9765625 C245.97087274 601.52595575 245.49252497 603.07534845 245.01417542 604.6247406 C243.13539978 610.71026543 241.25663254 616.79579281 239.37844849 622.88150024 C239.15629701 623.60126887 238.93414553 624.3210375 238.70526218 625.0626173 C238.26588035 626.48629794 237.82656544 627.90999923 237.38732052 629.33372211 C236.34653455 632.70649514 235.30416608 636.07876096 234.25791931 639.44984436 C232.6232219 644.72093258 230.99174296 649.99100383 229.44140625 655.28759766 C229.22002991 656.03235855 228.99865356 656.77711945 228.77056885 657.54444885 C228.23533539 659.35208269 227.71207163 661.16325074 227.19042969 662.97485352 C225.29120074 667.80121651 222.28774752 671.76668678 218.8671875 675.65625 C216.81563689 678.03187993 214.83095219 680.44493594 212.8828125 682.90625 C198.14759443 701.48127156 181.76400138 719.44081686 163 734 C161.83872009 734.94755571 160.68003411 735.89829595 159.5234375 736.8515625 C144.97479764 748.79384931 129.25516984 758.55035534 113 768 C112.0423877 768.56050049 112.0423877 768.56050049 111.06542969 769.13232422 C92.34373637 779.97803064 71.65913358 787.74829145 51 794 C50.3179248 794.20753906 49.63584961 794.41507813 48.93310547 794.62890625 C43.65421777 796.21087011 38.33430876 797.61817472 33 799 C32.37853088 799.1617572 31.75706177 799.3235144 31.11676025 799.49017334 C12.52777633 804.3254837 -6.00141706 809.05830557 -25 812 C-26.05445313 812.16838379 -27.10890625 812.33676758 -28.1953125 812.51025391 C-43.0889572 814.87911377 -57.96100913 816.85752232 -73 818 C-74.05356689 818.08677002 -74.05356689 818.08677002 -75.12841797 818.17529297 C-87.23241771 819.14441816 -99.36539199 819.10282265 -111.5 819.125 C-112.33014618 819.12767883 -113.16029236 819.13035767 -114.01559448 819.13311768 C-123.0699838 819.15526348 -131.99253394 819.04045447 -141 818 C-139.78063458 811.93960169 -138.17053962 806.18326438 -136.0859375 800.3671875 C-135.79957428 799.55400055 -135.51321106 798.7408136 -135.21817017 797.90298462 C-134.59909623 796.14607045 -133.97780035 794.38993792 -133.35449219 792.63452148 C-131.64937045 787.83068524 -129.96205062 783.02059648 -128.2734375 778.2109375 C-127.9210199 777.20822815 -127.56860229 776.2055188 -127.20550537 775.17242432 C-123.39350939 764.3076615 -119.69464484 753.40509932 -116 742.5 C-110.6049303 726.58897782 -105.12810872 710.70924132 -99.57275391 694.85351562 C-94.29058714 679.77113731 -89.12171329 664.65219444 -83.98873901 649.51846313 C-79.24938193 635.55002008 -74.44121399 621.60785606 -69.5625 607.6875 C-64.11886547 592.15484245 -58.78122767 576.58860594 -53.5 561 C-47.92059657 544.5312683 -42.26672865 528.09166034 -36.515625 511.68212891 C-31.59872922 497.64762076 -26.77662707 483.58283171 -22 469.5 C-16.21157383 452.43519101 -10.34049112 435.40164081 -4.37207031 418.39892578 C-1.45678531 410.08729693 1.43037703 401.76922936 4.21875 393.4140625 C8.83826382 379.6007325 13.59534261 366.09083012 19.64770508 352.82299805 C31.75175856 326.09527179 41.30043184 298.21772457 50.25848389 270.30523682 C51.01859278 267.94219849 51.78424115 265.5810156 52.55126953 263.22021484 C69.91679944 209.72115531 85.4033044 156.16738321 66 101 C65.60554688 99.79214844 65.21109375 98.58429688 64.8046875 97.33984375 C58.37000064 78.71007669 48.55751872 60.93272682 37 45 C36.24074219 43.94941406 35.48148438 42.89882813 34.69921875 41.81640625 C25.0015444 28.66843671 14.45989407 16.21423896 2.75 4.8125 C0 2 0 2 0 0 Z " fill="#D8B8FE" transform="translate(1060,258)"/>
<path d="M0 0 C2 1 2 1 2.78927612 3.16156006 C3.04427887 4.12370422 3.29928162 5.08584839 3.56201172 6.07714844 C3.85848099 7.178461 4.15495026 8.27977356 4.46040344 9.41445923 C4.94019905 11.24344254 4.94019905 11.24344254 5.4296875 13.109375 C5.77434403 14.39780277 6.11988017 15.68599551 6.4662323 16.97396851 C7.21432177 19.75981607 7.95820523 22.54673896 8.69900513 25.33453369 C10.70812081 32.888559 12.75387708 40.43270501 14.80078125 47.9765625 C15.01289938 48.75892651 15.22501751 49.54129051 15.44356346 50.34736252 C20.14084436 67.65745847 25.05415828 84.90258136 30.0625 102.125 C30.27182915 102.84483818 30.48115829 103.56467636 30.69683075 104.30632782 C54.4050333 185.78068608 79.67348424 266.92360592 115.08300781 366.66796875 C117.00351218 372.00310987 118.90504154 377.34490392 120.8046875 382.6875 C126.25119413 397.98516138 131.76716908 413.2384331 137.67895508 428.36376953 C139.69287731 433.53080233 141.61055616 438.70313815 143.36230469 443.96459961 C152.15599748 470.31471428 163.99993076 495.98038661 176 521 C176.66926514 522.40427246 176.66926514 522.40427246 177.35205078 523.83691406 C197.63951683 566.18690699 225.03795544 609.14513999 262.1796875 638.734375 C264.04503543 640.23285394 265.88458822 641.7640791 267.6953125 643.328125 C309.0489536 679.03739726 363.00058709 702.20409059 416 714 C417.36500597 714.31719711 418.72960466 714.63615307 420.09375 714.95703125 C423.05979946 715.65101077 426.02782122 716.33288688 429 717 C429 717.33 429 717.66 429 718 C380.18334357 718.04583804 331.36668933 718.08104993 282.55001559 718.10213066 C276.77886778 718.10463189 271.00772001 718.10722055 265.23657227 718.10986328 C264.08770348 718.1103879 262.9388347 718.11091252 261.75515171 718.11145304 C243.18453494 718.12014135 224.61393063 718.13590261 206.04332123 718.15430559 C186.96974129 718.17304851 167.89616785 718.18412599 148.82257909 718.18817699 C137.06550591 718.19091295 125.30846796 718.19953537 113.55140563 718.21583293 C105.47492973 718.2264541 97.39847188 718.22958908 89.32198951 718.22700275 C84.67137689 718.22572941 80.02082556 718.2275975 75.370224 718.23841095 C28.91933695 718.34105273 28.91933695 718.34105273 11.4375 713.875 C10.16217407 713.55849487 10.16217407 713.55849487 8.86108398 713.2355957 C-29.08441663 703.31837919 -61.19607051 678.39597721 -81.25488281 644.90478516 C-82.47299325 642.8069283 -83.65171133 640.69256089 -84.8125 638.5625 C-85.14918701 637.95631836 -85.48587402 637.35013672 -85.83276367 636.72558594 C-93.43228298 622.20610365 -97.46142762 605.45175217 -102.3125 589.875 C-103.01888382 587.61445222 -103.7254309 585.35395544 -104.43212891 583.09350586 C-111.08612106 561.79149708 -117.67087224 540.46804313 -124.25059509 519.14300537 C-127.58046576 508.35263469 -130.91836309 497.56475335 -134.2578125 486.77734375 C-134.53128195 485.89395639 -134.8047514 485.01056904 -135.0865078 484.10041237 C-136.77406699 478.64923233 -138.46177973 473.19809983 -140.14951706 467.74697495 C-142.66634964 459.61785711 -145.18285914 451.48863926 -147.69921875 443.359375 C-147.97019693 442.48396749 -148.24117512 441.60855999 -148.52036476 440.70662498 C-152.10594992 429.12290635 -155.68941903 417.53853631 -159.26953125 405.953125 C-159.46918362 405.30705795 -159.66883598 404.66099091 -159.87453842 403.99534607 C-161.86292203 397.56088455 -163.85075869 391.12625442 -165.83789062 384.69140625 C-166.15301102 383.67297134 -166.46813141 382.65453644 -166.7928009 381.60523987 C-167.39067345 379.66649232 -167.98465791 377.72654039 -168.57426453 375.78526306 C-169.82197761 371.69350582 -171.10368934 367.6422063 -172.6027832 363.63500977 C-176.39217302 353.2973225 -176.12354724 345.10000766 -174.5625 334.4375 C-174.35358744 332.84137281 -174.14707451 331.24492985 -173.94287109 329.64819336 C-173.34701049 325.09067672 -172.68462996 320.54492205 -172 316 C-171.83258301 314.86981445 -171.66516602 313.73962891 -171.49267578 312.57519531 C-170.64221692 306.98957756 -169.65989218 301.44034368 -168.56835938 295.89697266 C-168.16913725 293.86210595 -167.78076533 291.825095 -167.40039062 289.78662109 C-154.39985069 220.15372911 -126.12652001 154.28166577 -86 96 C-85.37061523 95.08492676 -85.37061523 95.08492676 -84.72851562 94.15136719 C-71.48970455 75.0179808 -56.65770438 57.1852853 -41 40 C-40.21882812 39.12601563 -39.43765625 38.25203125 -38.6328125 37.3515625 C-32.8662383 30.95399538 -26.8925493 24.7880753 -20.8125 18.6875 C-20.06427979 17.9346875 -19.31605957 17.181875 -18.54516602 16.40625 C-12.67459944 10.55187362 -6.68165574 4.92385922 0 0 Z " fill="#C382FE" transform="translate(292,639)"/>
</svg>
